<?xml version="1.0" encoding="utf-8"?>
<svg viewBox="0 0 3600 3600" style="shape-rendering:geometricPrecision; text-rendering:geometricPrecision; image-rendering:optimizeQuality; fill-rule:evenodd; clip-rule:evenodd" xmlns="http://www.w3.org/2000/svg">
  <defs>
    <style type="text/css">
   
    .fil2 {fill:#1A1110}
    .fil0 {fill:#E50000}
    .fil1 {fill:white}
   
  </style>
  </defs>
  <g id="Layer_x0020_1" style="" transform="matrix(0.5564520359039307, 0, 0, 0.5564520359039307, 798.3858032226562, 798.3858032226562)">
    <rect class="fil0" width="3600" height="3600"/>
    <g id="_105553501500416">
      <path class="fil1" d="M2209.43 1642.99c-23.33,70 -163.33,193.33 -223.33,250 -63.33,56.67 -180,183.33 -236.67,236.67 -30,23.33 -26.67,56.67 -80,63.33 0,-46.67 10,-296.67 -3.33,-326.67 -6.67,-16.67 -3.33,-10 -13.33,-16.67 -33.33,-23.33 -723.33,-10 -813.33,-3.33 -10,133.33 -16.67,716.67 0,830 120,10 746.67,16.67 836.67,-6.67l0 -410c50,13.33 113.33,100 146.67,133.33 90,93.33 193.33,186.67 286.67,280 36.67,40 96.67,120 150,136.67l440 -433.33c36.67,-33.33 130,-126.67 143.33,-156.67 -26.67,-43.33 -286.67,-293.33 -343.33,-353.33l-110 -100c-16.67,-23.33 -13.33,-16.67 -33.33,-33.33 -13.33,-13.33 -53.33,-63.33 -60,-90l410 0c16.67,-83.33 16.67,-753.33 0,-843.33l-833.33 -3.33c-13.33,176.67 -13.33,596.67 -3.33,803.33 3.33,40 -3.33,43.33 33.33,43.33 103.33,0 206.67,0 306.67,0z"/>
      <path class="fil2" d="M849.43 796.32c-33.33,10 -23.33,46.67 -23.33,83.33 0,120 -6.67,730 3.33,750 16.67,36.67 150,20 193.33,20 100,0 613.33,3.33 636.67,-10 36.67,-20 23.33,-140 23.33,-183.33 0,-96.67 3.33,-623.33 -6.67,-643.33 -13.33,-33.33 -146.67,-20 -190,-20l-636.67 3.33z"/>
    </g>
  </g>
</svg>